# xmcd
#
# Track frame offsets:
#	150
#	16171
#	35872
#	51009
#	64655
#	82541
#	115405
#
# Disc length: 2092 seconds
#
# Revision: 0
# Processed by: cddbd v1.5.1PL0 Copyright (c) Steve Scherf et al.
# Submitted via: dBpowerAMP V4.0
#
DISCID=4e082a07
DTITLE=Crosby Sisters - Angel
DYEAR=1900
DGENRE=Australian Coun
TTITLE0=Leather and Lace
TTITLE1=Angel From Montgomery
TTITLE2=Hey Mister
TTITLE3=Burning Desire
TTITLE4=McKean Sister Tribute Medley
TTITLE5=One More Heartache, To Her Door
TTITLE6=Don't Interfere With A Man
EXTD=Australian Country
EXTT0=
EXTT1=
EXTT2=
EXTT3=
EXTT4=
EXTT5=
EXTT6=
PLAYORDER=
